<svg xmlns="http://www.w3.org/2000/svg" width="491" height="787" viewBox="0 0 491 787">
  <text id="t2-c31" fill="#12263f" font-size="16" font-family="Consolas"><tspan x="0" y="15">mysql&gt; CREATE DATABASE borrame;</tspan><tspan x="0" y="39">Query OK, 1 row affected (0.00 sec)</tspan><tspan x="0" y="63">mysql&gt; USE borrame;</tspan><tspan x="0" y="87"> </tspan><tspan x="0" y="111">Database changed</tspan><tspan x="0" y="135">mysql&gt; CREATE TABLE borrame (</tspan><tspan x="0" y="159" xml:space="preserve">    -&gt; id INT,</tspan><tspan x="0" y="183" xml:space="preserve">    -&gt; nombre VARCHAR(40)</tspan><tspan x="0" y="207" xml:space="preserve">    -&gt; );</tspan><tspan x="0" y="231">Query OK, 0 rows affected (0.19 sec)</tspan><tspan x="0" y="255">mysql&gt; SHOW DATABASES;</tspan><tspan x="0" y="279">+--------------------+</tspan><tspan x="0" y="303" xml:space="preserve">| Database           |</tspan><tspan x="0" y="327">+--------------------+</tspan><tspan x="0" y="351" xml:space="preserve">| borrame            |</tspan><tspan x="0" y="375" xml:space="preserve">| mysql              |</tspan><tspan x="0" y="399" xml:space="preserve">| prueba             |</tspan><tspan x="0" y="423">+--------------------+</tspan><tspan x="0" y="447">4 rows in set (0.00 sec)</tspan><tspan x="0" y="471">mysql&gt; SHOW TABLES;</tspan><tspan x="0" y="495">+-------------------+</tspan><tspan x="0" y="519">| Tables_in_borrame |</tspan><tspan x="0" y="543">+-------------------+</tspan><tspan x="0" y="567" xml:space="preserve">| borrame           |</tspan><tspan x="0" y="591">+-------------------+</tspan><tspan x="0" y="615">1 row in set (0.00 sec)</tspan><tspan x="0" y="639"> </tspan><tspan x="0" y="663">mysql&gt; DROP DATABASE IF EXISTS borrame;</tspan><tspan x="0" y="687">Query OK, 1 row affected (0.13 sec)</tspan><tspan x="0" y="711"> </tspan><tspan x="0" y="735">mysql&gt; DROP DATABASE IF EXISTS borrame;</tspan><tspan x="0" y="759">Query OK, 0 rows affected, 1 warning (0.12 sec)</tspan><tspan x="0" y="783">mysql&gt;</tspan></text>
</svg>
