<svg xmlns="http://www.w3.org/2000/svg" width="1030" height="98.155" viewBox="0 0 1030 98.155">
  <g id="t3-c5" transform="translate(-285 -2623.5)">
    <rect id="Rectangle_7766" data-name="Rectangle 7766" width="1030" height="79" transform="translate(285 2631.508)" fill="#f5f5f5"/>
    <text id="INSERT_INTO_gente_nombre_fecha_edad_VALUES_Fulano_1974-04-12_18_" data-name="INSERT INTO gente (nombre, fecha, edad)  VALUES (&apos;Fulano&apos;, &apos;1974-04-12&apos;,&apos;18&apos;);" transform="translate(325 2661.508)" fill="#12263f" font-size="16" font-family="Consolas"><tspan x="0" y="15" xml:space="preserve">INSERT INTO gente (nombre, fecha, edad)  VALUES (&apos;Fulano&apos;, &apos;1974-04-12&apos;,&apos;18&apos;);</tspan></text>
    <path id="Path_134310" data-name="Path 134310" d="M-47.25-379.793s7.444,32.508,165.129,32.508c145.992,0,166.377-23.875,166.377-23.875h7.494l-5.7-8.633-16.788,8.633h8.318s-32.9,22.141-159.407,22.141S-34.409-372.256-37.708-379.793Z" transform="translate(689.25 3068.439)" fill="#a5e7f0"/>
    <path id="Path_134310_-_Outline" data-name="Path 134310 - Outline" d="M286.054-380.293a.5.5,0,0,1,.418.225l5.7,8.633a.5.5,0,0,1,.023.512.5.5,0,0,1-.44.263h-7.28a23.58,23.58,0,0,1-5.445,3.671c-3.849,2.055-10.979,5.155-23.087,8.25-13.579,3.472-30.543,6.237-50.423,8.22-24.835,2.477-54.32,3.733-87.637,3.733-35.989,0-67.074-1.71-92.391-5.084-20.274-2.7-36.922-6.47-49.482-11.2a81.981,81.981,0,0,1-12.841-6.006,38.991,38.991,0,0,1-7.135-5.276c-3.232-3.115-3.747-5.239-3.767-5.328a.5.5,0,0,1,.1-.423.5.5,0,0,1,.391-.188h9.542a.5.5,0,0,1,.458.3c.6,1.377,2.414,4.217,7.777,7.772,5.7,3.778,13.655,7.2,23.647,10.163,28.034,8.321,69.754,12.54,124,12.54,65.205,0,105-6,126.9-11.027a164.408,164.408,0,0,0,25.118-7.583c2.565-1.049,4.365-1.925,5.512-2.532h-6.439a.5.5,0,0,1-.486-.382.5.5,0,0,1,.257-.562l16.788-8.633A.5.5,0,0,1,286.054-380.293Zm-324.081,1h-8.5a15.056,15.056,0,0,0,3.412,4.376c2.9,2.748,8.7,6.9,19.847,11.051,19.68,7.336,60.142,16.081,141.144,16.081,75.082,0,116.207-6.438,137.485-11.839,12.065-3.062,19.175-6.124,23.014-8.154,4.162-2.2,5.486-3.694,5.5-3.709a.5.5,0,0,1,.379-.174h6.565l-4.937-7.483-14.552,7.483h6.253a.5.5,0,0,1,.478.354.5.5,0,0,1-.2.561,44.479,44.479,0,0,1-7.207,3.507,164.627,164.627,0,0,1-25.223,7.636,395.918,395.918,0,0,1-48.929,7.621c-23.1,2.3-49.455,3.462-78.327,3.462-29.312,0-55.326-1.262-77.32-3.752-18.471-2.091-34.274-5.061-46.969-8.83-10.087-2.994-18.133-6.455-23.915-10.288C-35.248-374.85-37.261-377.728-38.027-379.293Z" transform="translate(689.25 3068.439)" fill="#4dd0e1"/>
    <path id="Path_134309" data-name="Path 134309" d="M-47.25-379.793s6.178,32.508,137.039,32.508c121.158,0,138.075-23.875,138.075-23.875h6.219l-4.726-8.633-13.932,8.633h6.9s-27.3,22.141-132.291,22.141S-36.593-372.256-39.331-379.793Z" transform="translate(562.25 3068.439)" fill="#ffe493"/>
    <path id="Path_134309_-_Outline" data-name="Path 134309 - Outline" d="M-47.25-380.293h7.919a.5.5,0,0,1,.47.329c.5,1.378,2,4.219,6.447,7.768,4.721,3.771,11.313,7.184,19.592,10.145,23.249,8.315,57.856,12.532,102.86,12.532,54.177,0,87.21-6.01,105.382-11.052a119.36,119.36,0,0,0,20.781-7.578,47.841,47.841,0,0,0,4.527-2.511h-5.3a.5.5,0,0,1-.481-.363.5.5,0,0,1,.218-.562l13.932-8.633a.5.5,0,0,1,.391-.059.5.5,0,0,1,.311.243l4.726,8.633a.5.5,0,0,1-.008.5.5.5,0,0,1-.43.245H228.1a20.359,20.359,0,0,1-4.506,3.651c-3.2,2.059-9.128,5.164-19.19,8.264-11.277,3.474-25.365,6.242-41.871,8.225-20.616,2.478-45.092,3.734-72.747,3.734-29.875,0-55.681-1.711-76.7-5.086-16.838-2.7-30.666-6.476-41.1-11.213A63.664,63.664,0,0,1-38.685-369.1a33.658,33.658,0,0,1-5.934-5.287c-2.68-3.113-3.105-5.224-3.122-5.312a.5.5,0,0,1,.106-.412A.5.5,0,0,1-47.25-380.293Zm7.577,1h-6.9a15.03,15.03,0,0,0,2.824,4.386c2.4,2.743,7.192,6.883,16.414,11.032,16.315,7.34,49.878,16.09,117.121,16.09,62.284,0,96.4-6.433,114.046-11.83,10-3.058,15.891-6.114,19.073-8.139a17.842,17.842,0,0,0,4.55-3.7.5.5,0,0,1,.407-.209h5.376l-4.068-7.43-11.991,7.43h5.147a.5.5,0,0,1,.471.333.5.5,0,0,1-.156.555,35.073,35.073,0,0,1-6,3.519,120.358,120.358,0,0,1-20.956,7.645,277.4,277.4,0,0,1-40.628,7.626,553.236,553.236,0,0,1-65.022,3.463c-24.333,0-45.929-1.263-64.188-3.753-15.339-2.092-28.463-5.065-39.008-8.837-8.384-3-15.072-6.466-19.879-10.306C-37.351-374.859-39.029-377.722-39.673-379.293Z" transform="translate(562.25 3068.439)" fill="#ffca28"/>
    <path id="Trazado_134309" data-name="Trazado 134309" d="M-49.1-311.582c2.738-7.537,24.374-30.774,129.365-30.774s132.291,22.141,132.291,22.141h-6.9l13.932,8.633,4.726-8.633H218.1S201.179-344.09,80.021-344.09c-130.861,0-137.039,32.508-137.039,32.508Z" transform="translate(644.018 2968.09)" fill="#ffca7c"/>
    <path id="Trazado_134309_-_Outline" data-name="Trazado 134309 - Outline" d="M-49.1-311.082h-7.919a.5.5,0,0,1-.385-.181.5.5,0,0,1-.106-.412c.017-.088.442-2.2,3.122-5.312a33.658,33.658,0,0,1,5.934-5.287,63.666,63.666,0,0,1,10.675-6.017c10.435-4.737,24.263-8.51,41.1-11.213,21.018-3.375,46.823-5.086,76.7-5.086,27.656,0,52.131,1.256,72.747,3.734,16.507,1.984,30.594,4.751,41.872,8.226,10.062,3.1,15.99,6.205,19.19,8.264a20.36,20.36,0,0,1,4.506,3.651h5.978a.5.5,0,0,1,.43.245.5.5,0,0,1,.008.495l-4.726,8.633a.5.5,0,0,1-.311.243.5.5,0,0,1-.391-.059l-13.932-8.633a.5.5,0,0,1-.218-.562.5.5,0,0,1,.481-.363h5.3a48.125,48.125,0,0,0-4.609-2.553,119.98,119.98,0,0,0-20.829-7.573c-18.164-5.025-51.168-11.015-105.25-11.015-45,0-79.612,4.216-102.859,12.531-8.279,2.961-14.87,6.375-19.59,10.145-4.443,3.549-5.946,6.39-6.446,7.768A.5.5,0,0,1-49.1-311.082Zm-7.238-1h6.9c.644-1.571,2.322-4.434,6.634-7.879,4.807-3.84,11.494-7.307,19.877-10.305,10.544-3.771,23.668-6.745,39.007-8.837,18.259-2.49,39.855-3.753,64.189-3.753a553.257,553.257,0,0,1,65.023,3.463,277.393,277.393,0,0,1,40.628,7.626,120.341,120.341,0,0,1,20.956,7.645,35.067,35.067,0,0,1,6,3.519.5.5,0,0,1,.156.555.5.5,0,0,1-.471.333h-5.144l11.991,7.43,4.067-7.43H218.1a.5.5,0,0,1-.408-.211,17.854,17.854,0,0,0-4.549-3.695c-3.181-2.025-9.072-5.082-19.073-8.139-17.649-5.4-51.762-11.83-114.046-11.83-67.243,0-100.806,8.75-117.121,16.09-9.221,4.149-14.016,8.289-16.414,11.032A15.03,15.03,0,0,0-56.337-312.082Z" transform="translate(644.018 2968.09)" fill="#ffa726"/>
  </g>
</svg>
